<?xml version="1.0"?>
<svg xmlns="http://www.w3.org/2000/svg" xmlns:xlink="http://www.w3.org/1999/xlink" xmlns:svgjs="http://svgjs.com/svgjs" version="1.1" width="512" height="512" x="0" y="0" viewBox="0 0 128 128" style="enable-background:new 0 0 512 512" xml:space="preserve" class=""><g><path xmlns="http://www.w3.org/2000/svg" d="m121.5 16.875h-7.1v-10.375a1.75 1.75 0 0 0 -1.75-1.75h-97.3a1.75 1.75 0 0 0 -1.75 1.75v10.375h-7.1a1.75 1.75 0 0 0 -1.75 1.75v9a1.75 1.75 0 0 0 1.75 1.75h7.1v10.919.039s0 .026 0 .039v81.128a1.75 1.75 0 0 0 1.75 1.75h97.3a1.75 1.75 0 0 0 1.75-1.75v-81.128c0-.013 0-.026 0-.039s0-.026 0-.039v-10.919h7.1a1.75 1.75 0 0 0 1.75-1.75v-9a1.75 1.75 0 0 0 -1.75-1.75zm-104.4-8.625h93.8v8.625h-93.8zm29.313 111.5v-43.75a1.75 1.75 0 0 0 -3.5 0v43.75h-15.379v-61.05h34.258v61.05zm47.134-32.51v3.86l-10.9 2.815v-3.85zm-10.9 10.286 10.9-2.816v3.846l-10.9 2.824zm0-11.078a5.444 5.444 0 0 1 10.175-2.637zm10.893 15.725a5.443 5.443 0 0 1 -10.174 2.636zm-3.7 17.577v-8.865a8.963 8.963 0 0 0 7.2-8.776v-2.278a.048.048 0 0 0 0-.012v-7.445a.075.075 0 0 0 0-.015v-5.849a8.935 8.935 0 0 0 -.21-1.913v-.017l-.006-.015a8.947 8.947 0 0 0 -17.677 1.945v15.6a8.963 8.963 0 0 0 7.2 8.776v8.865h-21.055v-62.8a1.75 1.75 0 0 0 -1.75-1.75h-37.758a1.749 1.749 0 0 0 -1.75 1.75v62.8h-6.934v-77.668h93.8v77.667zm21.06-81.167h-93.8v-9.208h93.8zm8.85-12.708h-7.05c-.016 0-.031 0-.048 0s-.032 0-.049 0h-97.203c-.017 0-.032 0-.049 0s-.032 0-.048 0h-7.053v-5.5h111.5z" fill="#e1e1e3" data-original="#000000" style="" class=""/><path xmlns="http://www.w3.org/2000/svg" d="m103.1 55.2h-30a1.749 1.749 0 0 0 -1.75 1.75v9a1.749 1.749 0 0 0 1.75 1.75h30a1.75 1.75 0 0 0 1.75-1.75v-9a1.75 1.75 0 0 0 -1.75-1.75zm-1.75 9h-26.5v-5.5h26.5z" fill="#e1e1e3" data-original="#000000" style="" class=""/></g></svg>
